<?xml version="1.0" encoding="UTF-8"?>
<svg width="32" height="32" version="1.1" viewBox="0 0 32 32" xmlns="http://www.w3.org/2000/svg" xmlns:xlink="http://www.w3.org/1999/xlink">
    <!--Generated by IJSVG (https://github.com/iconjar/IJSVG)-->
    <g transform="scale(1.33333)">
        <path fill="none" stroke="#000" stroke-linecap="round" stroke-linejoin="round" stroke-width="1.5" d="M22.192,1.814l8.46168e-08,8.41995e-08c-1.42149,-1.41448 -3.72051,-1.4088 -5.13499,0.0126928c-0.00736746,0.00740398 -0.0147029,0.0148397 -0.0220062,0.022307l-14.465,14.461l-1.82,6.94l6.942,-1.819l14.465,-14.461l-1.00622e-07,9.82866e-08c1.43336,-1.40009 1.46033,-3.69705 0.060242,-5.13041c-0.00837164,-0.00857058 -0.0167857,-0.0170996 -0.0252418,-0.0255869Z"></path>
        <path fill="none" stroke="#000" stroke-linecap="round" stroke-linejoin="round" stroke-width="1.5" d="M16.62,2.26l5.12,5.12"></path>
        <path fill="none" stroke="#000" stroke-linecap="round" stroke-linejoin="round" stroke-width="1.5" d="M14.53,4.35l5.12,5.12"></path>
        <path fill="none" stroke="#000" stroke-linecap="round" stroke-linejoin="round" stroke-width="1.5" d="M2.57,16.31l3.59,1.532l1.536,3.584"></path>
        <path fill="none" stroke="#000" stroke-linecap="round" stroke-linejoin="round" stroke-width="1.5" d="M17.09,6.91l-10.93,10.93"></path>
    </g>
</svg>