<?xml version="1.0" encoding="UTF-8"?>
<svg width="32" height="32" version="1.1" viewBox="0 0 32 32" xmlns="http://www.w3.org/2000/svg" xmlns:xlink="http://www.w3.org/1999/xlink">
    <!--Generated by IJSVG (https://github.com/iconjar/IJSVG)-->
    <g transform="scale(1.33333)">
        <path fill="none" stroke="#000" stroke-linecap="round" stroke-linejoin="round" stroke-width="1.5" d="M18.177,23.25h-10.5h-6.55671e-08c-0.828427,-3.62117e-08 -1.5,-0.671573 -1.5,-1.5c0,0 0,0 0,0v-13.5h13.5v13.5v0c0,0.828427 -0.671573,1.5 -1.5,1.5Z"></path>
        <path fill="none" stroke="#000" stroke-linecap="round" stroke-linejoin="round" stroke-width="1.5" d="M10.68,18.75v-6"></path>
        <path fill="none" stroke="#000" stroke-linecap="round" stroke-linejoin="round" stroke-width="1.5" d="M15.18,18.75v-6"></path>
        <path fill="none" stroke="#000" stroke-linecap="round" stroke-linejoin="round" stroke-width="1.5" d="M2.43,6.21l19.07,-4.05"></path>
        <path fill="none" stroke="#000" stroke-linecap="round" stroke-linejoin="round" stroke-width="1.5" d="M13.541,0.783l-4.4,0.935l-1.0308e-07,2.17511e-08c-0.810578,0.171042 -1.32902,0.966801 -1.15798,1.77738c0.000325138,0.00154085 0.000652702,0.00308119 0.000982691,0.00462101l0.316,1.465l7.336,-1.56l-0.316,-1.467l-1.59504e-08,-7.49513e-08c-0.172406,-0.810138 -0.968819,-1.3272 -1.779,-1.155Z"></path>
    </g>
</svg>